{
    "asset" : {
        "generator" : "Khronos glTF Blender I/O v3.3.32",
        "version" : "2.0"
    },
    "scene" : 0,
    "scenes" : [
        {
            "name" : "Scene",
            "nodes" : [
                0,
                1
            ]
        }
    ],
    "nodes" : [
        {
            "mesh" : 0,
            "name" : "Item1",
            "translation" : [
                -2,
                0.33,
                -3
            ],
            "scale" : [
                0.33,
                0.33,
                0.33
            ]
        },
        {
            "mesh" : 0,
            "name" : "Item2",
            "translation" : [
                3.5,
                0.33,
                4.5
            ],
            "scale" : [
                0.33,
                0.33,
                0.33
            ]
        }
    ],
    "materials" : [
        {
            "doubleSided" : true,
            "name" : "Material.001",
            "pbrMetallicRoughness" : {
                "baseColorFactor" : [
                    0.8000000715255737,
                    0.6182988286018372,
                    0.05221756920218468,
                    1
                ],
                "metallicFactor" : 0,
                "roughnessFactor" : 0.5
            }
        }
    ],
    "meshes" : [
        {
            "name" : "Sphere",
            "primitives" : [
                {
                    "attributes" : {
                        "POSITION" : 0,
                        "NORMAL" : 1,
                        "TEXCOORD_0" : 2
                    },
                    "indices" : 3,
                    "material" : 0
                }
            ]
        }
    ],
    "accessors" : [
        {
            "bufferView" : 0,
            "componentType" : 5126,
            "count" : 1984,
            "max" : [
                0.9999997019767761,
                1,
                0.9999993443489075
            ],
            "min" : [
                -0.9999990463256836,
                -1,
                -1
            ],
            "type" : "VEC3"
        },
        {
            "bufferView" : 1,
            "componentType" : 5126,
            "count" : 1984,
            "type" : "VEC3"
        },
        {
            "bufferView" : 2,
            "componentType" : 5126,
            "count" : 1984,
            "type" : "VEC2"
        },
        {
            "bufferView" : 3,
            "componentType" : 5123,
            "count" : 2880,
            "type" : "SCALAR"
        }
    ],
    "bufferViews" : [
        {
            "buffer" : 0,
            "byteLength" : 23808,
            "byteOffset" : 0,
            "target" : 34962
        },
        {
            "buffer" : 0,
            "byteLength" : 23808,
            "byteOffset" : 23808,
            "target" : 34962
        },
        {
            "buffer" : 0,
            "byteLength" : 15872,
            "byteOffset" : 47616,
            "target" : 34962
        },
        {
            "buffer" : 0,
            "byteLength" : 5760,
            "byteOffset" : 63488,
            "target" : 34963
        }
    ],
    "buffers" : [
        {
            "byteLength" : 69248,
            "uri" : "seminar-bot-item.bin"
        }
    ]
}
